<?xml version="1.0" standalone="no"?>
<!DOCTYPE svg PUBLIC "-//W3C//DTD SVG 20010904//EN"
 "http://www.w3.org/TR/2001/REC-SVG-20010904/DTD/svg10.dtd">
<svg version="1.0" xmlns="http://www.w3.org/2000/svg"
 width="200.000000pt" height="150.000000pt" viewBox="0 0 200.000000 150.000000"
 preserveAspectRatio="xMidYMid meet">
<metadata>
Created by potrace 1.11, written by Peter Selinger 2001-2013
</metadata>
<g transform="translate(0.000000,150.000000) scale(0.100000,-0.100000)"
fill="#E95644" stroke="none">
<path d="M1656 1377 c-50 -76 -83 -469 -56 -675 5 -40 18 -93 29 -117 17 -38
25 -45 62 -55 23 -6 57 -9 76 -5 43 8 88 46 80 68 -9 23 -39 21 -60 -3 -21
-25 -53 -26 -66 -1 -27 49 -25 100 7 169 42 91 60 165 73 302 19 189 1 316
-46 334 -37 14 -84 6 -99 -17z m88 -250 c-2 -110 -7 -160 -23 -222 -12 -43
-26 -84 -31 -89 -13 -13 -13 121 0 301 9 137 22 185 43 163 8 -7 12 -57 11
-153z"/>
<path d="M1201 1053 c-7 -16 -17 -93 -21 -173 -8 -151 -26 -222 -59 -240 -39
-20 -46 2 -46 144 0 118 -3 137 -19 155 -40 44 -79 15 -126 -95 l-29 -69 -3
125 -3 125 -37 9 c-21 5 -41 6 -45 2 -4 -4 -11 -64 -14 -134 -7 -137 -25 -211
-60 -248 -27 -29 -65 -31 -79 -5 -14 27 -13 231 2 288 10 41 9 47 -8 60 -11 8
-37 13 -63 11 l-44 -3 2 -160 c1 -88 5 -171 8 -185 10 -44 43 -79 83 -91 47
-14 79 -7 118 26 l30 25 10 -30 c18 -49 107 -55 116 -7 16 82 37 160 52 193
l18 39 6 -103 c4 -94 7 -106 29 -123 42 -34 126 -16 152 33 11 21 12 21 30
-14 20 -39 77 -78 113 -78 31 0 66 40 87 102 l18 53 1 -64 0 -63 -57 -61 c-75
-82 -124 -185 -131 -277 -2 -38 -2 -80 2 -94 7 -30 46 -53 104 -62 37 -6 45
-3 83 30 24 20 47 36 51 36 5 0 18 19 28 42 17 37 20 67 20 201 0 150 1 159
20 164 26 7 26 39 -1 46 -20 5 -20 11 -18 203 l2 197 -23 9 c-55 20 -62 11
-82 -107 -29 -177 -67 -275 -105 -275 -27 0 -35 53 -31 210 2 128 6 161 21
183 23 36 22 44 -13 62 -45 23 -75 19 -89 -12z m216 -718 c-6 -134 -20 -190
-54 -212 -21 -14 -25 -14 -43 2 -45 41 -12 215 61 321 41 60 43 55 36 -111z"/>
<path d="M153 1003 c-4 -21 -8 -108 -8 -193 0 -146 1 -158 25 -204 41 -80 143
-113 202 -66 36 28 67 100 75 170 5 50 9 60 25 60 32 0 58 19 58 44 0 20 -5
23 -37 22 -36 -1 -38 0 -41 34 -8 119 -22 150 -67 150 -42 0 -55 -24 -55 -104
0 -64 3 -78 29 -112 26 -37 28 -44 21 -94 -11 -73 -25 -106 -50 -120 -18 -10
-26 -8 -45 10 -46 43 -55 163 -29 388 l7 52 -51 0 c-51 0 -51 0 -59 -37z"/>
</g>
</svg>
